<svg width="24" height="24" viewBox="0 0 24 24" fill="none" xmlns="http://www.w3.org/2000/svg">
<path fill-rule="evenodd" clip-rule="evenodd" d="M10.3806 2.56011C11.3457 1.85692 12.6543 1.85692 13.6194 2.56011C13.7754 2.67375 13.9285 2.82199 14.1269 3.01405C14.139 3.02577 14.1513 3.03766 14.1637 3.04971C14.297 3.17865 14.3335 3.21313 14.3677 3.24115C14.6105 3.44015 14.9194 3.54049 15.2328 3.52223C15.2769 3.51965 15.3267 3.51321 15.5103 3.48724C15.5275 3.48481 15.5444 3.48241 15.5611 3.48005C15.8345 3.44128 16.0455 3.41136 16.2385 3.4111C17.4326 3.40948 18.4913 4.17867 18.8588 5.31484C18.9181 5.49846 18.9549 5.70837 19.0025 5.98036C19.0054 5.99697 19.0084 6.01381 19.0114 6.03089C19.0434 6.21354 19.0527 6.26289 19.0638 6.30566C19.1433 6.60939 19.3342 6.87208 19.5985 7.04153C19.6357 7.06539 19.6798 7.08945 19.8436 7.17636C19.8589 7.18449 19.874 7.19251 19.8889 7.20041C20.1329 7.32973 20.3212 7.42954 20.4774 7.54276C21.4444 8.24333 21.8488 9.48791 21.4783 10.6231C21.4184 10.8065 21.3247 10.998 21.2034 11.246C21.196 11.2612 21.1885 11.2765 21.1809 11.2921C21.0994 11.4587 21.0779 11.504 21.0618 11.5452C20.9476 11.8377 20.9476 12.1624 21.0618 12.4548C21.0779 12.496 21.0994 12.5413 21.1809 12.7079C21.1885 12.7235 21.196 12.7388 21.2034 12.754C21.3247 13.002 21.4184 13.1935 21.4783 13.3769C21.8488 14.5121 21.4444 15.7567 20.4774 16.4573C20.3212 16.5705 20.1329 16.6703 19.8889 16.7996C19.874 16.8075 19.8589 16.8155 19.8436 16.8237C19.6798 16.9106 19.6357 16.9346 19.5985 16.9585C19.3342 17.1279 19.1433 17.3906 19.0638 17.6944C19.0527 17.7371 19.0434 17.7865 19.0114 17.9691C19.0084 17.9862 19.0054 18.003 19.0025 18.0196C18.9549 18.2916 18.9181 18.5016 18.8588 18.6852C18.4913 19.8213 17.4326 20.5905 16.2385 20.5889C16.0455 20.5887 15.8345 20.5587 15.5611 20.52C15.5444 20.5176 15.5275 20.5152 15.5103 20.5128C15.3267 20.4868 15.2769 20.4804 15.2328 20.4778C14.9194 20.4595 14.6105 20.5599 14.3677 20.7589C14.3335 20.7869 14.297 20.8214 14.1637 20.9503C14.1513 20.9623 14.139 20.9742 14.1269 20.986C13.9285 21.178 13.7754 21.3263 13.6194 21.4399C12.6543 22.1431 11.3457 22.1431 10.3806 21.4399C10.2246 21.3263 10.0715 21.178 9.87312 20.986C9.86099 20.9743 9.8487 20.9624 9.83623 20.9503C9.70296 20.8214 9.66645 20.7869 9.63225 20.7589C9.38943 20.5599 9.08061 20.4595 8.7672 20.4778C8.72305 20.4804 8.67325 20.4868 8.48965 20.5128C8.47248 20.5152 8.45555 20.5176 8.43886 20.52C8.16547 20.5587 7.95447 20.5887 7.76149 20.5889C6.56737 20.5905 5.50868 19.8213 5.14121 18.6852C5.08183 18.5016 5.04508 18.2916 4.99747 18.0197C4.99456 18.0031 4.99161 17.9862 4.98862 17.9691C4.95658 17.7865 4.94732 17.7371 4.93612 17.6943C4.85665 17.3906 4.66579 17.1279 4.40149 16.9585C4.36427 16.9346 4.32019 16.9106 4.15639 16.8237C4.14106 16.8155 4.12595 16.8075 4.11105 16.7996C3.8671 16.6703 3.67881 16.5705 3.52254 16.4573C2.55553 15.7567 2.15114 14.5121 2.52168 13.3769C2.58156 13.1935 2.67522 13.0021 2.79657 12.754C2.80398 12.7389 2.8115 12.7235 2.81911 12.7079C2.90055 12.5414 2.92206 12.496 2.93815 12.4548C3.05237 12.1624 3.05237 11.8377 2.93815 11.5452C2.92206 11.504 2.90055 11.4587 2.81911 11.2921C2.8115 11.2765 2.80398 11.2611 2.79657 11.246C2.67522 10.998 2.58156 10.8065 2.52168 10.6231C2.15114 9.48791 2.55553 8.24333 3.52254 7.54276C3.67881 7.42954 3.8671 7.32972 4.11106 7.2004C4.12596 7.1925 4.14107 7.18449 4.15639 7.17636C4.32019 7.08945 4.36427 7.06539 4.40149 7.04152C4.66579 6.87208 4.85665 6.60939 4.93612 6.30566C4.94732 6.26289 4.95658 6.21354 4.98862 6.03089C4.99161 6.01381 4.99456 5.99697 4.99747 5.98036C5.04508 5.70837 5.08183 5.49846 5.14121 5.31484C5.50868 4.17867 6.56737 3.40948 7.76149 3.4111C7.95447 3.41136 8.16547 3.44128 8.43885 3.48005C8.45555 3.48241 8.47248 3.48481 8.48965 3.48724C8.67325 3.51321 8.72306 3.51965 8.7672 3.52223C9.08061 3.54049 9.38943 3.44015 9.63225 3.24115C9.66645 3.21313 9.70295 3.17864 9.83623 3.04971C9.84869 3.03765 9.86098 3.02576 9.8731 3.01403C10.0715 2.82198 10.2246 2.67375 10.3806 2.56011ZM12.7361 3.77244C12.2974 3.45281 11.7026 3.45281 11.2639 3.77244C11.2041 3.81602 11.1318 3.88343 10.8792 4.1278C10.8729 4.13386 10.8667 4.13985 10.8606 4.14576C10.7544 4.24855 10.6712 4.32912 10.583 4.40132C10.0488 4.83913 9.36944 5.05987 8.67992 5.01969C8.56619 5.01306 8.45149 4.99681 8.30513 4.97608C8.29672 4.97489 8.2882 4.97368 8.27958 4.97246C7.93158 4.92324 7.83346 4.9112 7.75946 4.9111C7.21668 4.91036 6.73545 5.25999 6.56842 5.77643C6.54565 5.84684 6.52678 5.94388 6.46606 6.29006C6.46455 6.29864 6.46307 6.30712 6.4616 6.31549C6.43609 6.46108 6.4161 6.5752 6.38726 6.6854C6.21241 7.35359 5.79252 7.93152 5.21107 8.30429C5.11516 8.36578 5.01281 8.42006 4.88222 8.48931C4.87472 8.49329 4.86712 8.49732 4.85942 8.5014C4.54895 8.66613 4.4625 8.71406 4.40257 8.75748C3.96302 9.07592 3.77921 9.64163 3.94764 10.1576C3.9706 10.228 4.01237 10.3176 4.16672 10.6333C4.17055 10.6411 4.17433 10.6489 4.17806 10.6565C4.243 10.7893 4.2939 10.8934 4.33535 10.9995C4.58664 11.6428 4.58664 12.3572 4.33535 13.0005C4.2939 13.1067 4.243 13.2107 4.17805 13.3435C4.17432 13.3511 4.17055 13.3589 4.16672 13.3667C4.01237 13.6825 3.9706 13.772 3.94764 13.8424C3.77921 14.3584 3.96302 14.9241 4.40257 15.2425C4.4625 15.286 4.54895 15.3339 4.85942 15.4986L4.88225 15.5107C5.01283 15.58 5.11517 15.6342 5.21107 15.6957C5.79252 16.0685 6.21241 16.6464 6.38726 17.3146C6.4161 17.4248 6.43609 17.5389 6.4616 17.6845L6.46606 17.71C6.52678 18.0561 6.54565 18.1532 6.56842 18.2236C6.73545 18.74 7.21668 19.0897 7.75946 19.0889C7.83346 19.0888 7.93158 19.0768 8.27958 19.0276L8.30516 19.0239C8.4515 19.0032 8.5662 18.987 8.67992 18.9803C9.36944 18.9401 10.0488 19.1609 10.583 19.5987C10.6712 19.6709 10.7544 19.7515 10.8606 19.8543L10.8792 19.8722C11.1318 20.1166 11.2041 20.184 11.2639 20.2276C11.7026 20.5472 12.2974 20.5472 12.7361 20.2276C12.7959 20.184 12.8682 20.1166 13.1208 19.8722L13.1394 19.8542C13.2456 19.7515 13.3288 19.6709 13.4169 19.5987C13.9511 19.1609 14.6305 18.9401 15.32 18.9803C15.4338 18.987 15.5485 19.0032 15.6948 19.0239L15.7204 19.0276C16.0684 19.0768 16.1665 19.0888 16.2405 19.0889C16.7833 19.0897 17.2645 18.74 17.4315 18.2236C17.4543 18.1532 17.4732 18.0561 17.5339 17.71L17.5384 17.6845C17.5639 17.5389 17.5839 17.4248 17.6127 17.3146C17.7876 16.6464 18.2075 16.0685 18.7889 15.6957C18.8848 15.6342 18.9871 15.58 19.1177 15.5107L19.1405 15.4986C19.451 15.3339 19.5375 15.286 19.5974 15.2425C20.0369 14.9241 20.2208 14.3584 20.0523 13.8424C20.0294 13.772 19.9876 13.6825 19.8333 13.3667L19.8219 13.3435C19.757 13.2107 19.7061 13.1066 19.6646 13.0005C19.4133 12.3572 19.4133 11.6428 19.6646 10.9995C19.7061 10.8934 19.757 10.7893 19.8219 10.6565L19.8333 10.6333C19.9876 10.3176 20.0294 10.228 20.0523 10.1576C20.2208 9.64163 20.0369 9.07592 19.5974 8.75748C19.5375 8.71406 19.451 8.66613 19.1405 8.5014L19.1178 8.48932C18.9872 8.42006 18.8848 8.36578 18.7889 8.30429C18.2075 7.93152 17.7876 7.35359 17.6127 6.6854C17.5839 6.5752 17.5639 6.4611 17.5384 6.31553L17.5339 6.29006C17.4732 5.94388 17.4543 5.84684 17.4315 5.77643C17.2645 5.25999 16.7833 4.91036 16.2405 4.9111C16.1665 4.9112 16.0684 4.92324 15.7204 4.97246L15.6948 4.97608C15.5485 4.99681 15.4338 5.01306 15.32 5.01969C14.6305 5.05987 13.9511 4.83912 13.4169 4.40132C13.3288 4.32912 13.2456 4.24855 13.1394 4.14577L13.1208 4.1278C12.8682 3.88343 12.7959 3.81602 12.7361 3.77244ZM8.99476 8.99482C9.28765 8.70192 9.76253 8.70192 10.0554 8.99482L12 10.9394L13.9445 8.99482C14.2374 8.70192 14.7123 8.70192 15.0052 8.99482C15.2981 9.28771 15.2981 9.76258 15.0052 10.0555L13.0606 12L15.0052 13.9446C15.2981 14.2375 15.2981 14.7123 15.0052 15.0052C14.7123 15.2981 14.2374 15.2981 13.9445 15.0052L12 13.0607L10.0555 15.0052C9.76257 15.2981 9.28769 15.2981 8.9948 15.0052C8.70191 14.7123 8.70191 14.2375 8.9948 13.9446L10.9393 12L8.99476 10.0555C8.70187 9.76258 8.70187 9.28771 8.99476 8.99482Z" fill="black"/>
</svg>
