<svg width="22" height="22" viewBox="0 0 22 22" fill="none" xmlns="http://www.w3.org/2000/svg">
<path fill-rule="evenodd" clip-rule="evenodd" d="M7.81113 1.65841C9.08663 -0.552804 12.278 -0.552804 13.5535 1.65841C13.8509 2.17413 14.4579 2.42554 15.0329 2.27122C17.4984 1.60957 19.755 3.86618 19.0934 6.33167C18.939 6.90669 19.1904 7.51364 19.7062 7.81113C21.9174 9.08663 21.9174 12.278 19.7062 13.5535C19.1904 13.8509 18.939 14.4579 19.0934 15.0329C19.755 17.4984 17.4984 19.755 15.0329 19.0934C14.4579 18.939 13.8509 19.1904 13.5535 19.7062C12.278 21.9174 9.08663 21.9174 7.81113 19.7062C7.51364 19.1904 6.90669 18.939 6.33167 19.0934C3.86618 19.755 1.60957 17.4984 2.27122 15.0329C2.42554 14.4579 2.17413 13.8509 1.65841 13.5535C-0.552804 12.278 -0.552804 9.08663 1.65841 7.81113C2.17413 7.51364 2.42554 6.90669 2.27122 6.33167C1.60957 3.86618 3.86618 1.60957 6.33167 2.27122C6.90669 2.42554 7.51364 2.17413 7.81113 1.65841ZM10.8037 13.8035L15.8895 8.71773L14.4753 7.30351L9.38948 12.3893C9.24963 12.5292 9.07144 12.6244 8.87746 12.663C8.68348 12.7016 8.48242 12.6818 8.29969 12.6061C8.11696 12.5304 7.96078 12.4022 7.8509 12.2378C7.74102 12.0733 7.68237 11.88 7.68237 11.6822V11.1822H5.68237V11.6822C5.68237 12.2755 5.85832 12.8556 6.18796 13.3489C6.51761 13.8423 6.98614 14.2268 7.53432 14.4538C8.0825 14.6809 8.6857 14.7403 9.26764 14.6245C9.84959 14.5088 10.3841 14.2231 10.8037 13.8035Z" fill="#0E7F79"/>
</svg>
