<svg width="18" height="18" viewBox="0 0 18 18" fill="none" xmlns="http://www.w3.org/2000/svg">
<path d="M6.33351 2.77778H3.84462C2.84897 2.77778 2.35077 2.77778 1.97049 2.97154C1.63598 3.14199 1.36421 3.41375 1.19377 3.74826C1 4.12855 1 4.62675 1 5.6224V14.1557C1 15.1514 1 15.6489 1.19377 16.0292C1.36421 16.3637 1.63598 16.636 1.97049 16.8064C2.3504 17 2.84799 17 3.8417 17H12.3805C13.3742 17 13.8711 17 14.251 16.8064C14.5855 16.636 14.8582 16.3635 15.0286 16.029C15.2222 15.6491 15.2222 15.152 15.2222 14.1583V11.6667M11.6667 3.66667L6.33333 9V11.6667H9L14.3333 6.33333M11.6667 3.66667L14.3333 1L17 3.66667L14.3333 6.33333M11.6667 3.66667L14.3333 6.33333" stroke="#494949" stroke-width="2" stroke-linecap="round" stroke-linejoin="round"/>
</svg>
