<svg width="24" height="24" viewBox="0 0 24 24" fill="none" xmlns="http://www.w3.org/2000/svg">
<path fill-rule="evenodd" clip-rule="evenodd" d="M8.41892 4.58114C8.93273 3.03971 10.3752 2 12.0001 2C13.6249 2 15.0674 3.03971 15.5812 4.58114L15.8382 5.35223L16.6346 5.18926C18.2264 4.86352 19.8481 5.59292 20.6605 7.00005C21.4729 8.40718 21.2938 10.1763 20.2158 11.392L19.6766 12L20.2158 12.6081C21.2938 13.8238 21.473 15.5929 20.6606 17C19.8482 18.4072 18.2265 19.1366 16.6347 18.8108L15.8382 18.6478L15.5812 19.4189C15.0674 20.9603 13.6249 22 12.0001 22C10.3752 22 8.93273 20.9603 8.41892 19.4189L8.16195 18.6479L7.36591 18.8108C5.77409 19.1366 4.15241 18.4072 3.34001 17C2.5276 15.5929 2.70676 13.8238 3.78477 12.6081L4.32402 12L3.78485 11.392C2.70684 10.1763 2.52768 8.40718 3.34009 7.00005C4.15249 5.59292 5.77417 4.86352 7.36599 5.18926L8.16192 5.35214L8.41892 4.58114ZM12.0001 4C11.2361 4 10.5579 4.48885 10.3163 5.21359L9.93479 6.35808C9.6858 7.10506 8.91805 7.54831 8.14666 7.39046L6.96503 7.14866C6.21659 6.9955 5.45411 7.33845 5.07214 8.00005C4.69016 8.66165 4.7744 9.49345 5.28126 10.065L6.08161 10.9676C6.60402 11.5567 6.60402 12.4433 6.08161 13.0324L5.28118 13.9351C4.77432 14.5067 4.69008 15.3384 5.07206 16C5.45403 16.6616 6.21651 17.0046 6.96495 16.8514L8.14667 16.6096C8.91808 16.4518 9.68583 16.895 9.93482 17.642L10.3163 18.7864C10.5579 19.5112 11.2361 20 12.0001 20C12.764 20 13.4422 19.5112 13.6838 18.7864L14.0653 17.6419C14.3143 16.8949 15.0821 16.4517 15.8535 16.6095L17.0357 16.8514C17.7841 17.0046 18.5466 16.6616 18.9285 16C19.3105 15.3384 19.2263 14.5067 18.7194 13.9351L17.919 13.0324C17.3966 12.4433 17.3966 11.5567 17.919 10.9676L18.7193 10.065C19.2262 9.49345 19.3104 8.66165 18.9285 8.00005C18.5465 7.33845 17.784 6.9955 17.0356 7.14866L15.8535 7.39054C15.0821 7.5484 14.3143 7.10513 14.0653 6.35812L13.6838 5.21359C13.4422 4.48885 12.764 4 12.0001 4Z" fill="black"/>
<path fill-rule="evenodd" clip-rule="evenodd" d="M8 12C8 9.79086 9.79086 8 12 8C14.2091 8 16 9.79086 16 12C16 14.2091 14.2091 16 12 16C9.79086 16 8 14.2091 8 12ZM12 10C10.8954 10 10 10.8954 10 12C10 13.1046 10.8954 14 12 14C13.1046 14 14 13.1046 14 12C14 10.8954 13.1046 10 12 10Z" fill="black"/>
</svg>
