<svg width="24" height="24" viewBox="0 0 24 24" fill="none" xmlns="http://www.w3.org/2000/svg">
<path fill-rule="evenodd" clip-rule="evenodd" d="M9.57174 2.20502C11.0819 1.36607 12.9181 1.36607 14.4282 2.20502L19.9121 5.25165C21.2837 6.01366 21.2837 7.98627 19.9121 8.74828L14.4282 11.7949C12.9181 12.6339 11.0819 12.6339 9.57174 11.7949L4.0878 8.74828C2.71618 7.98628 2.71617 6.01367 4.0878 5.25166L9.57174 2.20502ZM13.4569 3.95333C12.5508 3.44996 11.4491 3.44996 10.543 3.95333L5.05908 6.99997L10.543 10.0466C11.4491 10.55 12.5508 10.55 13.4569 10.0466L18.9408 6.99997L13.4569 3.95333Z" fill="black"/>
<path d="M3.0011 10.1345L9.49488 13.8941C11.0445 14.7912 12.9556 14.7912 14.5052 13.8941L20.999 10.1345L22.0011 11.8654L15.5073 15.6249C13.3378 16.881 10.6623 16.881 8.49281 15.6249L1.99902 11.8654L3.0011 10.1345Z" fill="black"/>
<path d="M9.49488 18.3941L3.0011 14.6345L1.99902 16.3654L8.49281 20.1249C10.6623 21.381 13.3378 21.381 15.5073 20.1249L22.0011 16.3654L20.999 14.6345L14.5052 18.3941C12.9556 19.2912 11.0445 19.2912 9.49488 18.3941Z" fill="black"/>
</svg>
