<svg width="24" height="24" viewBox="0 0 24 24" fill="none" xmlns="http://www.w3.org/2000/svg">
<path fill-rule="evenodd" clip-rule="evenodd" d="M9.87868 3.70705C11.0503 2.53548 12.9497 2.53547 14.1213 3.70705L19.5355 9.12126C20.4732 10.0589 21 11.3307 21 12.6568V17.9999C21 19.6568 19.6569 20.9999 18 20.9999H6C4.34315 20.9999 3 19.6568 3 17.9999V12.6568C3 11.3307 3.52678 10.0589 4.46446 9.12126L9.87868 3.70705ZM12.7071 5.12126C12.3166 4.73074 11.6834 4.73074 11.2929 5.12126L5.87868 10.5355C5.31607 11.0981 5 11.8611 5 12.6568V17.9999C5 18.5522 5.44772 18.9999 6 18.9999H18C18.5523 18.9999 19 18.5522 19 17.9999V12.6568C19 11.8611 18.6839 11.0981 18.1213 10.5355L12.7071 5.12126Z" fill="black"/>
</svg>
