<svg width="24" height="24" viewBox="0 0 24 24" fill="none" xmlns="http://www.w3.org/2000/svg">
<path d="M8.99995 5C8.99995 3.34315 10.3431 2 12 2C13.6568 2 15 3.34315 15 5C15 6.65685 13.6568 8 12 8C10.3431 8 8.99995 6.65685 8.99995 5Z" fill="#0E7F79"/>
<path d="M11 13.3165V15.382L3.55274 19.1056C3.13792 19.313 2.92015 19.7784 3.0267 20.2298C3.13326 20.6811 3.53618 21 3.99995 21H6.58574C7.75646 21 8.87923 20.5349 9.70706 19.7071L8.74531 18.7454L12 17.118L15.7639 19H13.6568C12.3307 19 11.059 19.5268 10.1213 20.4645L9.29285 21.2929L10.7071 22.7071L11.5355 21.8787C12.0981 21.3161 12.8612 21 13.6568 21H20C20.4637 21 20.8666 20.6811 20.9732 20.2298C21.0798 19.7784 20.862 19.313 20.4472 19.1056L13 15.382V13.3168C13.0036 13.3223 13.0073 13.3279 13.011 13.3334C13.6703 14.3201 14.6074 15.0892 15.7037 15.5433C16.8001 15.9974 18.0065 16.1162 19.1704 15.8847C20.3343 15.6532 21.4034 15.0818 22.2425 14.2426L20.8283 12.8284C20.2689 13.3878 19.5561 13.7688 18.7802 13.9231C18.0043 14.0775 17.2 13.9983 16.4691 13.6955C15.7382 13.3928 15.1135 12.8801 14.674 12.2223C14.3835 11.7875 14.1825 11.3022 14.0796 10.7947C13.9 9.90887 13.1419 9 11.9998 9C10.8578 9 10.0997 9.90887 9.92011 10.7947C9.81722 11.3022 9.61623 11.7875 9.32572 12.2223C8.8862 12.8801 8.26148 13.3928 7.53058 13.6955C6.79967 13.9983 5.99541 14.0775 5.21948 13.9231C4.44356 13.7688 3.73083 13.3878 3.17142 12.8284L1.7572 14.2426C2.59632 15.0818 3.66542 15.6532 4.8293 15.8847C5.99319 16.1162 7.19959 15.9974 8.29594 15.5433C9.3923 15.0892 10.3294 14.3201 10.9887 13.3334C10.9924 13.3278 10.9962 13.3221 11 13.3165Z" fill="#0E7F79"/>
</svg>
