<svg width="24" height="24" viewBox="0 0 24 24" fill="none" xmlns="http://www.w3.org/2000/svg">
<path d="M4.99991 14C4.99991 10.5026 7.56478 7.60428 10.9161 7.08339C10.4856 4.75973 8.4483 3 5.99997 3C3.23855 3 0.999972 5.23858 0.999972 8C0.999972 9.44871 1.61609 10.7535 2.6006 11.6667C2.19918 11.8304 1.80909 12.0234 1.43357 12.2445C0.909289 12.5532 0.724142 13.1468 0.878116 13.6537C1.02825 14.148 1.48807 14.5279 2.06711 14.5279H5.01956C5.00654 14.3536 4.99991 14.1776 4.99991 14Z" fill="#0E7F79"/>
<path d="M18.9999 14C18.9999 14.1776 18.9933 14.3536 18.9803 14.5279H21.9329C22.5119 14.5279 22.9717 14.148 23.1219 13.6537C23.2758 13.1468 23.0907 12.5532 22.5664 12.2445C22.1909 12.0234 21.8008 11.8304 21.3994 11.6667C22.3839 10.7535 23 9.44871 23 8C23 5.23858 20.7614 3 18 3C15.5517 3 13.5143 4.75974 13.0838 7.08341C16.4351 7.60437 18.9999 10.5027 18.9999 14Z" fill="#0E7F79"/>
<path d="M6.99993 14C6.99993 11.2386 9.23851 9 11.9999 9C14.7614 9 16.9999 11.2386 16.9999 14C16.9999 15.4487 16.3838 16.7535 15.3993 17.6667C15.7767 17.8207 16.1445 18.0006 16.4999 18.2058C17.3027 18.6692 18.0256 19.2519 18.6455 19.9307C19.2055 20.5438 19.2513 21.3528 18.9195 21.9821C18.5998 22.5885 17.9514 23 17.1961 23L6.80376 23C6.04843 23 5.40007 22.5885 5.08034 21.9821C4.74854 21.3528 4.79437 20.5438 5.35435 19.9307C5.97428 19.2519 6.69716 18.6692 7.49991 18.2058C7.8553 18.0006 8.2231 17.8206 8.60056 17.6667C7.61605 16.7535 6.99993 15.4487 6.99993 14Z" fill="#0E7F79"/>
</svg>
