<svg width="18" height="18" viewBox="0 0 18 18" fill="none" xmlns="http://www.w3.org/2000/svg">
<path d="M9 6.00004V10M2.16787 12.1998C1.35258 13.775 0.945059 14.5629 1.00595 15.2092C1.05907 15.7729 1.3243 16.285 1.73539 16.6182C2.20654 17 3.02131 17 4.65078 17H13.3492C14.9787 17 15.7933 17 16.2645 16.6182C16.6756 16.285 16.9409 15.7729 16.994 15.2092C17.0549 14.5629 16.6475 13.775 15.8322 12.1998L11.4846 3.79985C10.6693 2.22468 10.2615 1.43722 9.72926 1.17291C9.26505 0.942364 8.73465 0.942364 8.27044 1.17291C7.73846 1.43711 7.33089 2.22457 6.51628 3.79844L2.16787 12.1998ZM9.04552 13V13.1L8.95535 13.1002V13H9.04552Z" stroke="#F33459" stroke-width="2" stroke-linecap="round" stroke-linejoin="round"/>
</svg>
